<svg width="567" height="530" viewBox="0 0 567 530" fill="none" xmlns="http://www.w3.org/2000/svg">
<path d="M499.683 243.943L464.961 137.565C464.786 137.04 464.231 136.719 463.677 136.836L443.514 141.474C443.369 142.174 443.018 142.874 442.377 143.486C442.318 143.545 442.289 143.574 442.26 143.632C442.172 143.778 442.114 143.924 442.026 144.07L463.21 139.199L496.736 241.96L477.157 230.876C476.632 230.584 475.961 230.759 475.669 231.284L362.661 430.943L264.796 375.581L377.804 175.922C377.95 175.659 377.979 175.368 377.921 175.105C377.834 174.814 377.658 174.58 377.396 174.434L357.817 163.35L416.991 149.787C416.729 149.116 416.641 148.358 416.787 147.599L354.607 161.863C354.17 161.95 353.849 162.329 353.761 162.767C353.674 163.204 353.907 163.642 354.316 163.875L375.383 175.805L262.316 375.465C262.17 375.727 262.14 376.019 262.199 376.281C262.286 376.573 262.461 376.806 262.724 376.952L362.515 433.394C362.69 433.481 362.865 433.539 363.04 433.539C363.419 433.539 363.799 433.335 364.003 432.985L477.011 233.326L498.078 245.256C498.458 245.489 498.954 245.431 499.304 245.139C499.683 244.847 499.829 244.381 499.683 243.943Z" fill="black"/>
<path d="M429.246 176.214C429.013 176.214 428.75 176.214 428.517 176.184C420.317 175.222 412.906 159.15 415.357 137.594C416.874 124.264 420.026 114.697 432.222 102.446C432.66 102.009 433.331 102.009 433.769 102.446C434.206 102.884 434.206 103.554 433.769 103.992C422.01 115.776 418.975 124.993 417.516 137.828C415.124 158.829 422.564 173.268 428.75 173.997C432.251 174.376 434.965 170.03 435.899 162.242C438.029 144.361 444.565 132.052 453.873 128.406C460.35 125.898 467.791 127.794 474.765 133.773C481.009 139.111 484.102 145.382 483.985 152.383C483.839 160.958 478.704 168.221 475.523 170.759C475.056 171.138 474.356 171.051 473.977 170.584C473.597 170.117 473.685 169.417 474.152 169.038C477.041 166.734 481.651 160.142 481.797 152.324C481.913 145.995 479.054 140.336 473.335 135.436C466.886 129.923 460.438 128.202 454.661 130.448C446.14 133.773 440.1 145.441 438.058 162.504C437.066 171.138 433.769 176.214 429.246 176.214Z" fill="black"/>
<path d="M481.797 192.081C481.272 192.081 480.805 191.702 480.717 191.177C480.63 190.594 481.038 190.01 481.622 189.923C496.795 187.444 515.731 169.709 522.618 140.57C526.907 122.368 540.854 106.471 553.138 92.4413C557.515 87.4243 561.688 82.699 565.043 78.2362C565.393 77.7403 566.094 77.6528 566.561 78.032C567.057 78.4112 567.144 79.0821 566.765 79.5779C563.351 84.0991 559.178 88.8828 554.743 93.9289C542.634 107.755 528.891 123.448 524.718 141.124C517.278 172.597 497.349 189.631 481.943 192.111C481.913 192.081 481.855 192.081 481.797 192.081Z" fill="black"/>
<path d="M400.36 146.403C400.097 146.403 399.863 146.316 399.659 146.141C392.014 139.636 389.009 130.944 391.168 121.697C395.37 103.613 417.312 87.4534 448.417 79.5487C469.484 74.1817 494.256 34.5706 494.519 34.1623C494.84 33.6372 495.511 33.4914 496.036 33.8122C496.561 34.1331 496.707 34.804 496.386 35.329C495.365 36.9916 470.884 76.1068 448.971 81.678C412.76 90.8953 396.479 108.659 393.327 122.193C391.373 130.623 394.144 138.528 401.118 144.478C401.585 144.857 401.643 145.557 401.235 146.024C400.972 146.257 400.651 146.403 400.36 146.403Z" fill="black"/>
<path d="M404.328 151.887C404.036 151.887 403.715 151.77 403.511 151.508C402.985 150.924 390.73 136.573 406.895 109.33C407.216 108.805 407.887 108.63 408.383 108.951C408.909 109.271 409.084 109.942 408.763 110.438C393.473 136.252 405.028 149.933 405.145 150.049C405.553 150.516 405.495 151.187 405.057 151.595C404.824 151.799 404.59 151.887 404.328 151.887Z" fill="black"/>
<path d="M436.103 98.9165C435.899 98.9165 435.665 98.8582 435.49 98.7124C434.994 98.3623 434.878 97.6915 435.228 97.1956L438.175 92.937C438.525 92.4411 439.196 92.3244 439.692 92.6453C440.188 92.9953 440.305 93.6662 439.955 94.162L437.008 98.4207C436.774 98.7707 436.453 98.9165 436.103 98.9165Z" fill="black"/>
<path d="M421.368 100.229C421.164 100.229 420.93 100.171 420.755 100.025C420.259 99.6751 420.142 99.0042 420.493 98.5083L423.44 94.2497C423.79 93.7538 424.461 93.6372 424.957 93.958C425.453 94.308 425.57 94.9789 425.22 95.4748L422.273 99.7334C422.039 100.083 421.718 100.229 421.368 100.229Z" fill="black"/>
<path d="M189.973 530C189.857 530 189.74 529.971 189.624 529.942C189.304 529.825 189.042 529.562 188.955 529.242L108.051 265.389C107.905 264.922 108.08 264.426 108.487 264.164L300.416 133.185C300.707 132.981 301.056 132.952 301.376 133.068C301.696 133.185 301.958 133.447 302.045 133.768L382.949 397.621C383.095 398.088 382.92 398.584 382.513 398.846L190.584 529.825C190.41 529.942 190.206 530 189.973 530ZM110.379 265.505L190.584 527.171L380.621 397.476L300.416 135.81L110.379 265.505Z" fill="black"/>
<path d="M366 73.7905L312.674 0L234.203 46.3518L254.39 50.5709L216 233.97L307.424 253L345.813 69.6005L366 73.7905Z" fill="url(#paint0_linear)"/>
<path d="M366 73.7905L312.674 0L234.203 46.3518L254.39 50.5709L216 233.97L307.424 253L345.813 69.6005L366 73.7905Z" fill="url(#paint1_linear)"/>
<path d="M241.365 335.562L183.037 363.68L105.422 202.728L100.987 193.511L73.4426 206.782L95.2098 151.391L104.81 126.948L186.831 152.149L159.315 165.392L241.365 335.562Z" fill="url(#paint2_linear)"/>
<path d="M170.374 188.348C161.037 194.998 154.53 182.718 160.015 166.85L170.374 188.348Z" fill="url(#paint3_linear)"/>
<path d="M132.762 177.41C108.69 175.689 111.024 187.735 105.13 203.02L100.987 193.802L72.8589 207.628L94.9179 151.683C100.987 149.204 107.523 148.212 114.701 149.699C127.014 152.266 139.444 156.029 146.126 158.683C156.66 162.825 149.394 178.606 132.762 177.41Z" fill="white"/>
<path d="M70.0286 236.534C69.6201 236.534 69.2116 236.301 69.0365 235.893C68.8031 235.338 69.0365 234.697 69.5909 234.463C99.2072 221.542 103.788 205.528 107.144 193.831C110.353 182.66 112.658 174.609 132.85 176.039C142.275 176.739 148.636 171.663 149.774 166.559C150.503 163.321 149.044 160.696 145.718 159.383C139.503 156.933 127.073 153.083 114.468 150.458C100.403 147.541 90.0159 154.541 76.8272 163.409C59.962 174.726 38.9826 188.814 1.07961 188.494C0.466857 188.494 0 187.998 0 187.385C0 186.773 0.496036 186.306 1.07961 186.306C1.54646 186.306 1.98414 186.306 2.451 186.306C38.8367 186.306 59.2033 172.626 75.6017 161.6C89.2281 152.441 99.9658 145.236 114.905 148.328C127.685 150.983 139.999 154.775 146.506 157.371C150.795 159.062 152.867 162.767 151.874 167.055C150.503 173.034 143.325 178.985 132.646 178.226C114.263 176.884 112.338 183.506 109.215 194.444C105.743 206.549 100.987 223.146 70.4371 236.476C70.3204 236.505 70.1745 236.534 70.0286 236.534Z" fill="black"/>
<path d="M178.865 201.882C178.164 212.47 186.13 220.958 193.337 211.8C211.165 189.165 194.679 178.985 191.878 180.093L178.865 201.882Z" fill="white"/>
<path d="M186.918 216.787C185.955 216.787 185.167 216.583 184.555 216.35C180.178 214.658 177.318 208.562 177.756 201.824C177.785 201.211 178.34 200.745 178.923 200.803C179.536 200.832 179.974 201.357 179.944 201.97C179.565 207.687 181.899 212.995 185.342 214.337C187.677 215.241 190.128 214.133 192.462 211.158C203.258 197.478 200.72 189.223 198.239 185.489C196.022 182.164 192.9 180.968 192.229 181.143C191.674 181.377 191.032 181.085 190.799 180.531C190.565 179.977 190.857 179.335 191.412 179.101C193.162 178.401 196.926 180.093 199.582 183.623C202.733 187.823 206.205 197.186 194.154 212.5C191.499 215.912 188.902 216.787 186.918 216.787Z" fill="black"/>
<path d="M24.8019 286.18C19.4622 286.18 13.9183 286.005 8.17009 285.625C7.55734 285.596 7.11966 285.071 7.14884 284.459C7.17802 283.846 7.73241 283.379 8.31598 283.438C68.5114 287.346 108.369 268.62 108.778 268.445C109.332 268.183 109.974 268.416 110.237 268.97C110.499 269.524 110.266 270.166 109.712 270.429C109.361 270.604 76.2437 286.18 24.8019 286.18Z" fill="black"/>
<path d="M167.164 190.827C166.347 203.049 174.021 209.291 182.337 198.761C202.908 172.655 182.104 162.913 178.836 164.196L167.164 190.827Z" fill="white"/>
<path d="M174.109 205.207C173.204 205.207 172.416 205.003 171.833 204.799C167.864 203.282 165.589 197.769 166.055 190.74C166.085 190.127 166.639 189.661 167.223 189.719C167.835 189.748 168.273 190.273 168.244 190.886C167.835 196.836 169.615 201.59 172.621 202.757C175.13 203.749 178.369 202.028 181.462 198.09C193.483 182.806 190.449 174.055 187.56 170.176C184.525 166.121 180.09 164.867 179.244 165.217C178.69 165.451 178.048 165.159 177.814 164.605C177.581 164.05 177.873 163.409 178.427 163.175C180.44 162.359 185.838 164.225 189.311 168.863C192.579 173.239 196.138 183.01 183.183 199.432C179.565 204.041 176.385 205.207 174.109 205.207Z" fill="black"/>
<path d="M173.554 185.431C172.475 186.656 171.395 187.619 170.374 188.348C161.037 194.998 154.53 182.718 160.015 166.851C160.278 166.121 160.541 165.392 160.832 164.663L175.538 157.575C176.851 159.821 184.117 173.647 173.554 185.431Z" fill="white"/>
<path d="M165.034 191.585C163.429 191.585 162.233 191.031 161.533 190.594C156.835 187.619 154.938 177.993 160.336 165.363C160.57 164.809 161.212 164.546 161.766 164.779C162.32 165.013 162.583 165.655 162.35 166.209C157.652 177.176 158.848 186.277 162.7 188.727C165.297 190.39 168.944 188.902 172.737 184.702C183.562 172.626 174.78 159.762 174.692 159.646C174.342 159.15 174.459 158.479 174.955 158.129C175.451 157.779 176.122 157.896 176.472 158.392C176.559 158.537 186.305 172.801 174.371 186.16C170.549 190.419 167.368 191.585 165.034 191.585Z" fill="black"/>
<path d="M456.138 399.054L418.902 410.491L426.744 436.003L463.979 424.566L456.138 399.054Z" fill="black"/>
<path d="M458.25 439.315L427.904 448.619L420.784 425.518L451.13 416.184L458.25 439.315Z" fill="url(#paint4_linear)"/>
<path d="M434.031 453.491L324.962 486.976L270.194 503.807L242.241 512.411L189.602 528.571L188.523 525.012L108.515 264.653L352.944 189.602L434.031 453.491Z" fill="white"/>
<path d="M189.602 529.65C189.136 529.65 188.698 529.358 188.552 528.892L187.472 525.333L107.465 264.974C107.29 264.39 107.611 263.778 108.194 263.603L352.623 188.523C352.915 188.435 353.207 188.464 353.469 188.61C353.732 188.756 353.907 188.989 353.994 189.252L435.082 453.141C435.169 453.403 435.14 453.724 434.994 453.986C434.848 454.249 434.615 454.424 434.352 454.511L189.923 529.592C189.836 529.65 189.719 529.65 189.602 529.65ZM109.887 265.382L190.332 527.2L432.66 452.761L352.215 190.944L109.887 265.382Z" fill="black"/>
<path d="M309.877 278.333C309.41 278.333 308.972 278.041 308.826 277.575L302.407 256.69C302.319 256.427 302.349 256.106 302.494 255.844C302.64 255.581 302.874 255.406 303.136 255.319L341.565 243.535C342.148 243.36 342.761 243.681 342.936 244.264L349.355 265.149C349.443 265.411 349.414 265.732 349.268 265.995C349.122 266.257 348.888 266.432 348.626 266.52L310.198 278.275C310.11 278.333 309.993 278.333 309.877 278.333ZM304.829 257.098L310.606 275.883L346.933 264.74L341.156 245.956L304.829 257.098Z" fill="black"/>
<path d="M297.622 238.459C297.155 238.459 296.717 238.168 296.571 237.701C296.396 237.117 296.717 236.505 297.301 236.33L335.729 224.546C336.312 224.371 336.925 224.692 337.1 225.275C337.275 225.858 336.954 226.471 336.371 226.646L297.943 238.43C297.855 238.459 297.738 238.459 297.622 238.459Z" fill="black"/>
<path d="M99.2656 304.001H26.5818V327.453H99.2656V304.001Z" fill="black"/>
<path d="M52.9884 317.04H37.3486C36.7359 317.04 36.269 316.544 36.269 315.96C36.269 315.348 36.7651 314.881 37.3486 314.881H52.9884C53.6011 314.881 54.068 315.377 54.068 315.96C54.0972 316.544 53.6011 317.04 52.9884 317.04Z" fill="white"/>
<path d="M84.1512 317.04H59.4077C58.795 317.04 58.3281 316.544 58.3281 315.96C58.3281 315.348 58.8242 314.881 59.4077 314.881H84.1512C84.7639 314.881 85.2308 315.377 85.2308 315.96C85.26 316.544 84.7639 317.04 84.1512 317.04Z" fill="white"/>
<path d="M90.337 343.496H26.5818C25.9691 343.496 25.5022 343 25.5022 342.416C25.5022 341.804 25.9982 341.337 26.5818 341.337H90.337C90.9498 341.337 91.4166 341.833 91.4166 342.416C91.4166 343 90.9498 343.496 90.337 343.496Z" fill="black"/>
<path d="M81.0874 357.876H26.5818C25.9691 357.876 25.5022 357.38 25.5022 356.796C25.5022 356.213 25.9982 355.717 26.5818 355.717H81.0582C81.671 355.717 82.1378 356.213 82.1378 356.796C82.1378 357.38 81.671 357.876 81.0874 357.876Z" fill="black"/>
<path d="M472.43 339.208C472.255 339.208 472.08 339.149 471.905 339.062C471.38 338.77 471.176 338.099 471.467 337.574L475.523 330.282C475.815 329.757 476.486 329.553 477.011 329.845C477.536 330.136 477.741 330.807 477.449 331.332L473.393 338.624C473.189 339.004 472.809 339.208 472.43 339.208Z" fill="black"/>
<path d="M130.516 93.2288C130.282 93.2288 130.049 93.1413 129.844 92.9954L122.55 87.3075C122.083 86.9283 121.995 86.2575 122.346 85.7616C122.725 85.2949 123.396 85.2074 123.892 85.5574L131.187 91.2453C131.654 91.6245 131.741 92.2954 131.391 92.7912C131.187 93.0829 130.866 93.2288 130.516 93.2288Z" fill="black"/>
<path d="M162.204 109.476C162.029 109.476 161.883 109.447 161.708 109.359C161.153 109.097 160.949 108.426 161.212 107.901L165.268 99.7917C165.53 99.2667 166.201 99.0334 166.726 99.2959C167.281 99.5584 167.485 100.229 167.222 100.754L163.167 108.863C162.992 109.242 162.612 109.476 162.204 109.476Z" fill="black"/>
<path d="M54.1845 386.286C53.9511 386.286 53.7468 386.228 53.5426 386.082C53.0466 385.732 52.959 385.032 53.3092 384.565L59.816 375.64C60.1661 375.144 60.8664 375.056 61.3333 375.406C61.8001 375.756 61.9168 376.456 61.5667 376.923L55.0599 385.849C54.8556 386.14 54.5347 386.286 54.1845 386.286Z" fill="black"/>
<path d="M124.855 530C120.682 530 117.269 526.587 117.269 522.416C117.269 518.245 120.682 514.832 124.855 514.832C129.028 514.832 132.441 518.245 132.441 522.416C132.441 526.587 129.028 530 124.855 530ZM124.855 516.991C121.879 516.991 119.457 519.412 119.457 522.387C119.457 525.362 121.879 527.783 124.855 527.783C127.831 527.783 130.253 525.362 130.253 522.387C130.253 519.412 127.831 516.991 124.855 516.991Z" fill="black"/>
<path d="M337.888 393.491C337.655 393.491 337.392 393.403 337.188 393.228L332.519 389.349C332.052 388.97 331.994 388.27 332.373 387.803C332.753 387.336 333.453 387.278 333.92 387.657L338.588 391.537C339.055 391.916 339.114 392.616 338.734 393.082C338.53 393.374 338.209 393.491 337.888 393.491Z" fill="black"/>
<path d="M341.769 383.019C341.448 383.019 341.127 382.874 340.893 382.582L337.013 377.536C336.633 377.069 336.721 376.369 337.217 375.99C337.684 375.611 338.384 375.698 338.763 376.194L342.644 381.24C343.023 381.707 342.936 382.407 342.44 382.786C342.236 382.961 342.002 383.019 341.769 383.019Z" fill="black"/>
<path d="M436.948 525H399.412C398.799 525 398.331 524.507 398.331 523.926V501.382H367.373C366.759 501.382 366.291 500.889 366.291 500.308V484.147H338.082C337.468 484.147 337 483.654 337 483.074C337 482.493 337.497 482 338.082 482H367.373C367.987 482 368.455 482.493 368.455 483.074V499.235H399.412C400.026 499.235 400.494 499.728 400.494 500.308V522.853H436.918C437.532 522.853 438 523.346 438 523.926C438 524.507 437.532 525 436.948 525Z" fill="black"/>
<path d="M324.962 486.977L309.118 491.848L297.972 495.29L270.165 503.836C268.939 502.494 267.713 501.182 266.43 499.869C264.971 498.294 263.453 496.777 261.907 495.29C256.334 489.777 250.469 484.556 244.341 479.655C243.991 484.847 243.67 490.098 243.32 495.29C242.97 501.007 242.562 506.724 242.211 512.412L223.771 518.07L189.573 528.571L188.494 525.013C189.136 515.095 189.778 505.178 190.419 495.261C191.353 481.026 192.258 466.821 193.191 452.616C193.629 445.966 194.067 439.315 194.475 432.665C195.088 423.156 199.873 414.638 207.431 409.971C211.282 407.609 215.834 406.209 220.94 406.209C221.874 406.209 222.837 406.267 223.771 406.355C227.389 406.821 230.919 408.046 234.1 409.942C237.076 411.663 239.731 413.968 241.89 416.593C241.832 414.609 241.745 412.626 241.657 410.642C241.657 410.409 241.628 410.176 241.628 409.942C241.657 400.258 250.615 392.266 260.04 392.266C270.048 392.266 277.663 400.317 278.393 409.942C278.451 410.176 278.451 410.409 278.451 410.642C278.86 420.589 279.268 430.535 279.677 440.453C284.433 444.361 289.072 448.387 293.537 452.587C298.935 457.575 304.099 462.796 309.089 468.192C314.662 474.259 319.972 480.501 324.962 486.977Z" fill="white"/>
<path d="M189.602 529.65C189.136 529.65 188.698 529.359 188.552 528.892L187.472 525.333C187.443 525.217 187.414 525.071 187.414 524.954L193.425 432.606C194.067 422.689 199.115 413.88 206.905 409.038C211.924 405.946 217.818 404.721 223.916 405.275C227.622 405.742 231.357 407.025 234.683 409.009C236.843 410.263 238.885 411.838 240.723 413.647L240.577 409.942C240.607 399.937 249.71 391.187 260.069 391.187C270.369 391.187 278.714 399.208 279.502 409.884C279.531 410.059 279.56 410.38 279.56 410.671L280.756 439.957C285.746 444.07 290.181 447.949 294.295 451.828C299.664 456.816 304.916 462.067 309.906 467.492C315.537 473.617 320.877 479.947 325.808 486.306C326.042 486.597 326.1 486.977 325.983 487.297C325.866 487.647 325.604 487.91 325.254 487.998L270.486 504.828C270.077 504.944 269.639 504.828 269.348 504.536C268.122 503.194 266.897 501.882 265.642 500.598C264.358 499.227 262.928 497.769 261.148 496.019C256.188 491.089 250.848 486.306 245.304 481.785L243.291 512.441C243.262 512.908 242.97 513.287 242.532 513.403L189.923 529.563C189.836 529.65 189.719 529.65 189.602 529.65ZM189.632 524.896L190.332 527.2L241.19 511.595L243.291 479.597C243.32 479.189 243.583 478.839 243.933 478.664C244.312 478.489 244.75 478.547 245.071 478.809C251.286 483.768 257.238 489.077 262.724 494.502C264.533 496.281 265.992 497.74 267.276 499.14C268.385 500.248 269.464 501.415 270.544 502.582L323.153 486.422C318.543 480.53 313.553 474.667 308.33 469.009C303.37 463.642 298.176 458.391 292.836 453.462C288.635 449.524 284.112 445.557 279.035 441.357C278.801 441.153 278.656 440.861 278.626 440.569L277.401 410.759C277.401 410.555 277.372 410.38 277.342 410.234C276.642 400.608 269.202 393.433 260.069 393.433C250.877 393.433 242.766 401.192 242.766 410.03L243.028 416.651C243.058 417.118 242.766 417.555 242.328 417.701C241.89 417.876 241.394 417.73 241.103 417.38C239.002 414.813 236.405 412.597 233.604 410.963C230.511 409.125 227.097 407.93 223.683 407.521C222.808 407.434 221.903 407.375 220.999 407.375C216.301 407.375 211.953 408.571 208.072 410.963C200.895 415.426 196.226 423.593 195.642 432.81L189.632 524.896Z" fill="black"/>
<path d="M223.8 519.15C223.187 519.15 222.72 518.654 222.72 518.07V406.384C222.72 405.771 223.216 405.304 223.8 405.304C224.413 405.304 224.879 405.8 224.879 406.384V518.07C224.879 518.683 224.413 519.15 223.8 519.15Z" fill="black"/>
<path d="M266.459 500.948C265.846 500.948 265.379 500.453 265.379 499.869V395.504C265.379 394.891 265.875 394.425 266.459 394.425C267.072 394.425 267.538 394.92 267.538 395.504V499.869C267.538 500.482 267.072 500.948 266.459 500.948Z" fill="black"/>
<path d="M309.118 492.927C308.505 492.927 308.038 492.431 308.038 491.848V468.251C308.038 467.638 308.534 467.171 309.118 467.171C309.701 467.171 310.197 467.667 310.197 468.251V491.848C310.226 492.461 309.73 492.927 309.118 492.927Z" fill="black"/>
<path d="M293.566 453.724H193.22C192.608 453.724 192.141 453.229 192.141 452.645C192.141 452.033 192.637 451.566 193.22 451.566H293.566C294.178 451.566 294.645 452.062 294.645 452.645C294.674 453.229 294.178 453.724 293.566 453.724Z" fill="black"/>
<path d="M243.349 496.369H190.449C189.836 496.369 189.369 495.873 189.369 495.29C189.369 494.706 189.865 494.21 190.449 494.21H243.349C243.962 494.21 244.429 494.706 244.429 495.29C244.429 495.873 243.962 496.369 243.349 496.369Z" fill="black"/>
<path d="M297.972 496.369H261.936C261.323 496.369 260.856 495.873 260.856 495.29C260.856 494.706 261.352 494.21 261.936 494.21H297.972C298.584 494.21 299.051 494.706 299.051 495.29C299.051 495.873 298.584 496.369 297.972 496.369Z" fill="black"/>
<path d="M289.189 361.901L192.199 373.686L187.181 439.373L287.322 435.027L288.401 393.403C294.266 386.461 292.72 380.132 289.189 361.901Z" fill="black"/>
<path d="M401.614 343.992C375.995 311.469 326.742 317.857 290.765 322.495L287.117 322.961C277.197 324.245 267.597 325.674 258.61 327.249C247.113 329.203 235.792 331.42 224.967 333.841C200.165 339.325 175.393 346.267 151.379 354.493C115.285 366.802 72.5672 391.07 73.8219 436.69C74.3471 456.145 82.7797 471.867 98.2152 482.193C112.367 491.644 130.808 495.61 148.986 495.61C164.188 495.61 179.215 492.839 191.353 488.231C191.645 488.114 191.878 487.881 191.995 487.589C192.112 487.297 192.083 486.977 191.937 486.685C188.085 479.334 184.876 471.78 181.783 464.458C179.186 458.304 176.501 451.974 173.408 445.703C173.175 445.236 172.65 444.974 172.125 445.149C156.835 449.524 142.829 449.524 130.458 445.149C125.789 443.515 122.929 440.861 121.908 437.302C120.624 432.84 122.433 427.093 126.869 421.551C135.214 411.109 149.686 405.45 162.583 400.987C179.886 394.949 198.706 389.407 220.152 383.982C252.978 375.669 296.221 366.218 338.997 366.685C347.225 366.773 362.544 366.918 365.695 376.165C366.746 379.286 366.512 382.407 364.995 385.47C361.96 391.595 354.141 396.466 347.75 398.596C347.284 398.741 346.817 398.916 346.35 399.091C348.392 402.883 350.376 406.704 352.39 410.526C357.759 420.822 363.011 431.148 368.467 441.386C388.25 434.327 399.747 423.651 408.15 404.604C417.283 383.865 414.774 360.647 401.614 343.992Z" fill="black"/>
<path d="M172.475 447.249C172.154 447.249 171.833 447.103 171.628 446.84C171.249 446.374 171.337 445.674 171.804 445.295C174.955 442.786 177.231 436.836 179.448 431.089C182.22 423.885 184.613 417.672 188.815 417.38C189.398 417.322 189.953 417.789 189.982 418.401C190.011 419.014 189.573 419.509 188.961 419.568C186.159 419.743 183.796 425.927 181.491 431.877C179.186 437.886 176.764 444.099 173.175 446.986C172.971 447.161 172.737 447.249 172.475 447.249Z" fill="black"/>
<path d="M186.072 438.79C204.192 423.943 211.632 423.039 210.728 428.085C209.823 433.131 201.215 435.815 198.531 441.153C198.531 441.153 210.407 430.739 213.091 434.035C215.776 437.302 204.483 445.324 200.895 451.566C200.895 451.566 213.091 438.207 215.746 442.057C218.431 445.907 213.383 447.395 209.502 453.345C205.651 459.296 201.536 479.451 191.411 486.889L188.202 478.518L186.072 438.79Z" fill="white"/>
<path d="M191.441 488.318C191.091 488.318 190.77 488.172 190.565 487.881C190.215 487.385 190.303 486.714 190.799 486.364C197.393 481.522 201.536 470.438 204.542 462.329C206.059 458.275 207.343 454.804 208.656 452.791C210.086 450.574 211.691 448.97 212.974 447.657C215.571 445.032 216.009 444.303 214.9 442.728C214.813 442.611 214.696 442.523 214.463 442.494C212.041 442.319 205.563 448.153 201.741 452.353C201.361 452.762 200.749 452.82 200.282 452.499C199.844 452.178 199.698 451.566 199.99 451.07C201.449 448.532 204.046 445.79 206.555 443.136C209.415 440.132 213.295 436.019 212.274 434.765C212.187 434.677 212.07 434.56 211.72 434.531C209.152 434.356 202.704 439.023 199.261 442.028C198.881 442.378 198.298 442.407 197.86 442.057C197.451 441.736 197.306 441.182 197.539 440.715C198.91 438.002 201.536 436.019 204.075 434.094C206.73 432.11 209.21 430.214 209.619 427.939C209.706 427.443 209.736 426.831 209.386 426.597C207.927 425.752 201.507 427.531 186.743 439.665C186.276 440.044 185.576 439.986 185.196 439.519C184.817 439.052 184.876 438.352 185.342 437.973C192.783 431.877 205.942 422.047 210.494 424.701C211.136 425.081 212.187 426.072 211.778 428.289C211.457 430.068 210.407 431.527 209.006 432.869C210.057 432.46 211.049 432.256 211.866 432.314C212.712 432.373 213.441 432.752 213.908 433.335C215.601 435.377 213.908 438.119 211.136 441.269C212.391 440.598 213.587 440.19 214.521 440.248C215.396 440.307 216.126 440.715 216.622 441.415C218.869 444.653 216.709 446.811 214.433 449.116C213.15 450.399 211.72 451.887 210.378 453.899C209.21 455.708 207.927 459.091 206.468 463.029C203.346 471.4 199.085 482.835 191.966 488.056C191.878 488.26 191.645 488.318 191.441 488.318Z" fill="black"/>
<path d="M339.464 454.599C337.188 454.599 334.62 453.987 333.54 453.695C324.203 451.157 314.341 444.449 313.378 435.173C313.115 432.635 312.065 430.652 311.16 428.931C309.702 426.131 308.301 423.476 311.044 420.034C316.909 412.684 328.93 405.654 347.75 398.537C348.305 398.304 348.947 398.595 349.151 399.179C349.355 399.733 349.093 400.375 348.509 400.579C330.302 407.434 318.28 414.434 312.736 421.376C310.956 423.622 311.598 425.081 313.057 427.91C314.02 429.718 315.187 431.994 315.508 434.94C316.529 444.507 327.851 449.961 334.416 451.653C339.084 452.878 341.273 452.324 341.506 452.003C341.506 452.003 341.477 451.828 341.273 451.507C340.31 449.991 340.135 448.591 340.689 447.365C342.206 444.069 348.83 443.107 355.833 442.057C360.356 441.386 365.024 440.686 367.388 439.432C367.913 439.14 368.584 439.344 368.876 439.869C369.167 440.394 368.963 441.065 368.438 441.357C365.754 442.815 361.085 443.515 356.154 444.244C350.61 445.061 343.695 446.082 342.673 448.299C342.586 448.503 342.294 449.086 343.111 450.37C344.045 451.857 343.607 452.878 343.257 453.345C342.586 454.278 341.098 454.599 339.464 454.599Z" fill="black"/>
<path d="M323.941 449.32C323.766 449.32 323.62 449.291 323.445 449.203C321.752 448.357 319.476 446.14 318.659 442.728C318.076 440.19 318.134 436.194 321.781 431.352C322.132 430.856 322.832 430.769 323.299 431.148C323.795 431.527 323.882 432.198 323.503 432.665C321.023 435.931 320.06 439.257 320.76 442.203C321.344 444.711 323.007 446.549 324.378 447.22C324.933 447.482 325.137 448.153 324.874 448.678C324.728 449.086 324.349 449.32 323.941 449.32Z" fill="black"/>
<path d="M334.037 453.987C333.92 453.987 333.803 453.958 333.686 453.928C330.944 453.024 329.222 451.624 328.434 449.67C327.413 447.161 328.026 443.836 330.273 439.49C330.564 438.965 331.206 438.732 331.731 439.023C332.257 439.315 332.49 439.957 332.198 440.482C330.273 444.186 329.689 446.986 330.448 448.853C331.002 450.195 332.257 451.157 334.358 451.857C334.941 452.062 335.233 452.674 335.058 453.228C334.912 453.695 334.503 453.987 334.037 453.987Z" fill="black"/>
<path d="M314.458 432.548C314.399 432.548 314.341 432.548 314.283 432.548C313.699 432.46 313.261 431.906 313.349 431.294C314.458 423.797 318.893 419.335 319.068 419.13C319.505 418.693 320.177 418.693 320.614 419.13C321.052 419.568 321.052 420.239 320.614 420.676C320.585 420.705 316.529 424.877 315.508 431.615C315.45 432.14 314.983 432.548 314.458 432.548Z" fill="black"/>
<path d="M383.027 435.231C382.677 435.231 382.298 435.056 382.094 434.706L356.767 394.337C356.446 393.841 356.592 393.141 357.117 392.82C357.642 392.499 358.313 392.645 358.634 393.17L383.961 433.539C384.282 434.035 384.136 434.735 383.611 435.056C383.436 435.173 383.232 435.231 383.027 435.231Z" fill="white"/>
<path d="M357.058 416.855C362.07 416.855 366.133 412.794 366.133 407.784C366.133 402.774 362.07 398.712 357.058 398.712C352.046 398.712 347.984 402.774 347.984 407.784C347.984 412.794 352.046 416.855 357.058 416.855Z" fill="black"/>
<path d="M357.058 417.934C351.456 417.934 346.875 413.384 346.875 407.755C346.875 402.125 351.427 397.575 357.058 397.575C362.661 397.575 367.242 402.125 367.242 407.755C367.242 413.384 362.661 417.934 357.058 417.934ZM357.058 399.792C352.652 399.792 349.063 403.379 349.063 407.784C349.063 412.188 352.652 415.776 357.058 415.776C361.464 415.776 365.053 412.188 365.053 407.784C365.053 403.379 361.464 399.792 357.058 399.792Z" fill="white"/>
<path d="M290.677 370.273C290.152 370.273 289.685 369.894 289.598 369.339L287.03 351.809C286.942 351.226 287.351 350.642 287.964 350.555C288.576 350.467 289.131 350.876 289.218 351.488L291.786 369.018C291.874 369.602 291.465 370.185 290.852 370.273C290.794 370.273 290.736 370.273 290.677 370.273Z" fill="white"/>
<path d="M271.594 289.301L267.626 291.313C267.626 291.313 266.867 302.602 256.159 303.302L251.753 329.612C254.116 329.174 256.451 328.737 258.814 328.328C258.464 334.6 255.342 340.638 249.419 343.555C249.419 343.555 248.835 343.817 248.397 344.021C246.326 344.867 243.962 345.334 241.278 345.334C232.991 345.334 227.622 340.783 225.2 334.891C227.36 334.425 229.519 333.987 231.649 333.52L237.951 296.855L238.01 296.535C237.776 296.214 237.31 295.543 237.31 295.485C237.047 295.047 236.814 294.609 236.551 294.084C236.493 294.026 236.434 293.939 236.405 293.851C236.259 293.501 236.084 293.093 235.938 292.684C235.646 291.926 235.384 291.109 235.18 290.263C235.063 289.767 234.975 289.272 234.917 288.747C234.567 286.413 234.567 283.73 234.888 280.696C235.384 276.379 237.193 273.258 239.761 271.129C240.402 270.575 241.074 270.108 241.803 269.729C241.861 269.67 241.92 269.67 241.949 269.641C242.007 269.583 242.036 269.583 242.095 269.583C242.124 269.554 242.124 269.554 242.153 269.524C243.174 268.97 244.254 268.562 245.392 268.27C248.106 267.512 251.111 267.483 253.883 268.066C254.204 268.124 254.496 268.212 254.817 268.27C255.721 268.474 256.626 268.766 257.443 269.145C257.735 269.291 258.026 269.408 258.318 269.554C258.873 269.816 259.398 270.108 259.923 270.429C260.448 270.779 260.944 271.1 261.411 271.508C261.644 271.683 261.878 271.887 262.082 272.091C262.286 272.266 262.491 272.47 262.695 272.704C262.899 272.908 263.103 273.141 263.278 273.375C263.366 273.433 263.424 273.491 263.483 273.579C270.544 282.417 271.594 289.301 271.594 289.301Z" fill="white"/>
<path d="M241.307 346.442C233.341 346.442 227.126 342.388 224.238 335.329C224.121 335.037 224.121 334.687 224.296 334.396C224.442 334.104 224.704 333.9 225.025 333.841C226.368 333.55 227.681 333.258 229.023 332.995L230.774 332.616L236.93 296.826C236.638 296.418 236.463 296.155 236.376 295.98C236.113 295.543 235.88 295.105 235.646 294.609C235.646 294.639 235.501 294.434 235.413 294.143C235.296 293.939 235.121 293.501 234.975 293.064C234.625 292.188 234.363 291.343 234.187 290.526C234.071 290.001 233.954 289.447 233.925 288.863C233.575 286.53 233.546 283.73 233.896 280.609C234.392 276.262 236.172 272.791 239.148 270.312C239.848 269.729 240.578 269.204 241.365 268.795C241.395 268.766 241.424 268.766 241.453 268.737C241.54 268.679 241.628 268.62 241.745 268.591C242.912 267.949 244.079 267.512 245.246 267.249C248.076 266.462 251.199 266.403 254.233 267.045L255.167 267.249C256.13 267.453 257.093 267.774 257.997 268.183C258.318 268.329 258.639 268.474 258.931 268.62C259.456 268.854 260.011 269.145 260.623 269.524C261.207 269.904 261.732 270.254 262.228 270.691C262.462 270.866 262.753 271.1 262.987 271.333C263.162 271.479 263.395 271.741 263.629 271.975C263.775 272.12 263.979 272.325 264.154 272.558C264.3 272.675 264.416 272.82 264.533 272.966C271.594 281.863 272.703 288.834 272.762 289.126C272.82 289.592 272.587 290.059 272.178 290.263L268.735 292.013C268.385 294.464 266.43 303.185 257.18 304.293L253.183 328.241L254 328.095C255.575 327.803 257.151 327.512 258.727 327.22C259.048 327.162 259.398 327.249 259.631 327.483C259.894 327.716 260.011 328.037 259.981 328.358C259.602 335.591 255.838 341.629 249.973 344.488L248.923 344.984C246.53 345.975 244.021 346.442 241.307 346.442ZM226.776 335.708C229.49 341.163 234.713 344.255 241.278 344.255C243.7 344.255 245.946 343.846 247.989 343.029L248.952 342.563C253.708 340.229 256.859 335.446 257.589 329.67C256.48 329.874 255.4 330.079 254.292 330.283L251.928 330.72C251.578 330.779 251.228 330.662 250.965 330.429C250.703 330.166 250.586 329.816 250.644 329.466L255.05 303.156C255.138 302.66 255.546 302.281 256.071 302.252C265.7 301.639 266.488 291.722 266.517 291.284C266.547 290.905 266.78 290.555 267.101 290.38L270.311 288.747C269.815 286.763 268.064 281.104 262.666 274.308C262.666 274.308 262.666 274.308 262.666 274.279C262.607 274.221 262.549 274.162 262.491 274.104C262.345 273.9 262.17 273.725 261.995 273.55C261.761 273.316 261.586 273.141 261.411 272.966C261.178 272.733 260.973 272.558 260.769 272.412C260.332 272.033 259.865 271.712 259.369 271.391C258.931 271.1 258.464 270.837 257.939 270.604C257.618 270.458 257.355 270.312 257.063 270.195C256.276 269.874 255.459 269.583 254.642 269.408L253.708 269.204C251.024 268.62 248.252 268.708 245.713 269.408C244.721 269.641 243.758 270.02 242.766 270.516C242.708 270.575 242.62 270.604 242.562 270.633C242.533 270.662 242.503 270.662 242.503 270.662C241.716 271.07 241.103 271.508 240.519 272.004C237.981 274.133 236.463 277.108 236.026 280.871C235.705 283.817 235.705 286.413 236.055 288.63C236.113 289.184 236.201 289.622 236.288 290.088C236.434 290.818 236.668 291.547 236.989 292.363C237.135 292.801 237.28 293.151 237.426 293.472C237.776 294.143 238.01 294.551 238.243 294.989C238.272 295.018 238.272 295.047 238.272 295.076C238.389 295.251 238.71 295.718 238.885 295.951C239.06 296.185 239.119 296.447 239.089 296.739L239.031 297.06L232.729 333.754C232.641 334.191 232.32 334.541 231.882 334.629L229.402 335.154C228.556 335.329 227.681 335.504 226.776 335.708ZM242.27 270.691C242.241 270.691 242.212 270.691 242.212 270.691C242.212 270.72 242.241 270.691 242.27 270.691Z" fill="black"/>
<path d="M245.976 289.768C248.281 290.555 242.387 296.71 237.981 296.885L238.039 296.564C237.806 296.243 237.339 295.572 237.339 295.514C237.076 295.076 236.843 294.639 236.58 294.114C236.522 294.055 236.464 293.968 236.434 293.88C236.289 293.53 236.113 293.122 235.968 292.714C235.676 291.955 235.413 291.138 235.209 290.293C235.092 289.797 235.005 289.301 234.946 288.776C234.596 286.442 234.596 283.759 234.917 280.725C235.413 276.408 237.222 273.287 239.79 271.158C240.403 270.808 240.986 270.487 241.599 270.108C241.657 269.991 241.745 269.845 241.832 269.758C241.862 269.699 241.891 269.699 241.891 269.641C241.92 269.67 241.949 269.67 241.978 269.67L242.008 269.699C242.037 269.67 242.066 269.67 242.095 269.641C242.124 269.612 242.124 269.612 242.153 269.583C242.183 269.554 242.183 269.554 242.212 269.524C243.087 268.591 244.313 268.154 245.451 268.27H245.596C248.31 267.57 251.199 267.512 253.971 268.066C254.292 268.124 254.583 268.212 254.904 268.27C255.809 268.504 256.713 268.795 257.53 269.145C257.822 269.291 258.114 269.408 258.406 269.554C258.96 269.816 259.485 270.108 260.011 270.429C260.536 270.779 261.032 271.1 261.499 271.508C261.761 271.683 261.966 271.887 262.17 272.091C262.374 272.266 262.578 272.471 262.783 272.704C262.987 272.908 263.191 273.141 263.366 273.375C259.485 278.333 250.353 282.184 246.355 282.738C242.416 283.234 242.912 288.717 245.976 289.768Z" fill="black"/>
<path d="M239.848 272.208C237.572 266.403 234.217 260.511 227.622 259.286C221.028 258.061 217.03 263.166 213.471 267.803C209.386 273.141 205.155 275.796 198.239 276.146C192.958 276.408 187.706 276.146 182.425 276.7C172.621 277.75 162.963 280.229 153.888 284.109C149.832 285.83 141.312 289.184 146.652 294.901C148.811 297.205 152.429 297.584 155.376 297.964C161.65 298.78 168.04 298.197 174.284 299.247C186.014 301.172 207.372 317.973 214.842 299.655C217.206 293.822 218.985 288.484 222.662 283.263C224.179 281.104 225.813 277.925 228.002 276.496C233.925 272.645 232.962 276.321 237.076 277.371C238.097 277.633 239.031 277.487 239.761 277.137C240.49 277.312 241.307 276.816 241.161 275.971C242.095 274.629 241.891 272.82 239.848 272.208Z" fill="black"/>
<defs>
<linearGradient id="paint0_linear" x1="237.64" y1="53.361" x2="374.621" y2="312.764" gradientUnits="userSpaceOnUse">
<stop stop-color="#485FE5"/>
<stop offset="1" stop-color="white"/>
</linearGradient>
<linearGradient id="paint1_linear" x1="291.437" y1="-18.9513" x2="291.437" y2="379.026" gradientUnits="userSpaceOnUse">
<stop offset="0.00540541" stop-color="#485FE5"/>
<stop offset="1" stop-color="white"/>
</linearGradient>
<linearGradient id="paint2_linear" x1="101.451" y1="125.272" x2="238.94" y2="385.064" gradientUnits="userSpaceOnUse">
<stop stop-color="#485FE5"/>
<stop offset="1" stop-color="white"/>
</linearGradient>
<linearGradient id="paint3_linear" x1="155.768" y1="168.774" x2="169.029" y2="193.831" gradientUnits="userSpaceOnUse">
<stop stop-color="#FF647E"/>
<stop offset="1" stop-color="white"/>
</linearGradient>
<linearGradient id="paint4_linear" x1="462.402" y1="423.832" x2="416.69" y2="440.98" gradientUnits="userSpaceOnUse">
<stop stop-color="#485FE5"/>
<stop offset="1" stop-color="white"/>
</linearGradient>
</defs>
</svg>
